<svg width="25" height="7" viewBox="0 0 25 7" fill="none" xmlns="http://www.w3.org/2000/svg">
<path d="M6.54684 3.06077C6.54684 3.86014 6.22929 4.62677 5.66405 5.192C5.09881 5.75724 4.33219 6.07479 3.53282 6.07479C2.73345 6.07479 1.96682 5.75724 1.40158 5.192C0.836346 4.62677 0.518799 3.86014 0.518799 3.06077C0.518799 2.2614 0.836346 1.49478 1.40158 0.929539C1.96682 0.364301 2.73345 0.0467529 3.53282 0.0467529C4.33219 0.0467529 5.09881 0.364301 5.66405 0.929539C6.22929 1.49478 6.54684 2.2614 6.54684 3.06077ZM15.5889 3.06077C15.5889 3.86014 15.2713 4.62677 14.7061 5.192C14.1409 5.75724 13.3742 6.07479 12.5749 6.07479C11.7755 6.07479 11.0089 5.75724 10.4436 5.192C9.8784 4.62677 9.56085 3.86014 9.56085 3.06077C9.56085 2.2614 9.8784 1.49478 10.4436 0.929539C11.0089 0.364301 11.7755 0.0467529 12.5749 0.0467529C13.3742 0.0467529 14.1409 0.364301 14.7061 0.929539C15.2713 1.49478 15.5889 2.2614 15.5889 3.06077ZM21.6169 6.07479C22.4163 6.07479 23.1829 5.75724 23.7482 5.192C24.3134 4.62677 24.6309 3.86014 24.6309 3.06077C24.6309 2.2614 24.3134 1.49478 23.7482 0.929539C23.1829 0.364301 22.4163 0.0467529 21.6169 0.0467529C20.8176 0.0467529 20.0509 0.364301 19.4857 0.929539C18.9205 1.49478 18.6029 2.2614 18.6029 3.06077C18.6029 3.86014 18.9205 4.62677 19.4857 5.192C20.0509 5.75724 20.8176 6.07479 21.6169 6.07479Z" fill="#46474B"/>
</svg>
