<svg width="24" height="28" viewBox="0 0 24 28" fill="none" xmlns="http://www.w3.org/2000/svg">
<path d="M24 17.2369C20.5559 25.034 12.3051 20.317 12.3051 20.317C9.77364 24.9827 5.59199 27.9829 0.766524 28C-0.239822 28 -0.271075 26.6083 0.766524 26.6083C4.79191 26.5912 8.2985 24.1727 10.5925 20.3284C8.02347 21.2353 3.17926 21.9197 0.491498 15.6398C7.30465 13.0788 10.4362 16.2787 11.6363 18.2351C12.2551 16.8433 12.6989 15.3318 12.9864 13.6891C12.9864 13.6891 4.25436 14.9383 3.6418 8.09371C11.0863 5.36158 13.1802 12.4685 13.1802 12.4685C13.2802 11.516 13.3865 9.46832 13.3865 9.42269C13.3865 9.42269 6.7421 5.21899 11.005 0C18.7933 2.45264 14.8429 9.26299 14.8429 9.26299C14.8741 9.35425 14.8741 10.6205 14.8429 11.1681C14.8429 11.1681 17.6681 6.09167 23.3687 7.88837C23.1062 15.5315 14.4991 13.9572 14.4991 13.9572C14.2241 15.5201 13.799 17.0031 13.249 18.3777C13.249 18.3777 18.437 13.1416 24 17.2369Z" fill="#B3E376"/>
</svg>
