<svg width="46" height="46" viewBox="0 0 46 46" fill="none" xmlns="http://www.w3.org/2000/svg">
<rect x="0.166748" y="0.600006" width="45.3333" height="45.3333" rx="22.6667" fill="white" fill-opacity="0.15"/>
<path d="M31.9454 17.396L25.4174 12.8287C23.6381 11.582 20.9068 11.65 19.1954 12.976L13.5174 17.4074C12.3841 18.2914 11.4888 20.1047 11.4888 21.5327V29.3527C11.4888 32.2427 13.8348 34.6 16.7248 34.6H28.9421C31.8321 34.6 34.1781 32.254 34.1781 29.364V21.68C34.1781 20.15 33.1921 18.2687 31.9454 17.396ZM23.6834 30.0667C23.6834 30.5314 23.2981 30.9167 22.8334 30.9167C22.3688 30.9167 21.9834 30.5314 21.9834 30.0667V26.6667C21.9834 26.202 22.3688 25.8167 22.8334 25.8167C23.2981 25.8167 23.6834 26.202 23.6834 26.6667V30.0667Z" fill="white"/>
<circle cx="22.8333" cy="41.4" r="2.26667" fill="white"/>
</svg>
