<svg width="25" height="26" viewBox="0 0 25 26" fill="none" xmlns="http://www.w3.org/2000/svg">
<path d="M23.913 16.7296L17.2758 12.9L23.913 9.07043C24.287 8.85461 24.4149 8.37708 24.1991 8.00305L22.6356 5.29651C22.4198 4.92297 21.9418 4.79456 21.5678 5.01038L14.9306 8.83997V1.18127C14.9306 0.749634 14.5805 0.400024 14.1488 0.400024H11.0219C10.5902 0.400024 10.2401 0.749634 10.2401 1.18127V8.84045L3.60292 5.01086C3.22889 4.79504 2.75086 4.92346 2.53504 5.297L0.971568 8.00305C0.755748 8.37659 0.883678 8.85461 1.2577 9.07043L7.89491 12.9L1.2577 16.7296C0.883678 16.9454 0.755748 17.4235 0.971568 17.797L2.53504 20.5035C2.75086 20.8771 3.22889 21.005 3.60292 20.7897L10.2401 16.9601V24.6188C10.2401 25.0504 10.5902 25.4 11.0219 25.4H14.1488C14.5805 25.4 14.9306 25.0504 14.9306 24.6188V16.9596L21.5678 20.7892C21.9418 21.005 22.4198 20.8771 22.6356 20.5031L24.1991 17.7965C24.4149 17.423 24.287 16.9454 23.913 16.7296Z" fill="#B3E376"/>
</svg>
