<svg width="25" height="20" viewBox="0 0 25 20" fill="none" xmlns="http://www.w3.org/2000/svg">
<path d="M24.8017 18.0742L13.5517 0.574219C13.3216 0.216406 12.9255 0 12.5001 0C12.0747 0 11.6786 0.216406 11.4486 0.574219L0.19856 18.0742C0.0771555 18.2631 0.00884446 18.4811 0.000802486 18.7054C-0.00723949 18.9298 0.0452844 19.1522 0.152857 19.3492C0.26048 19.5462 0.419159 19.7106 0.612231 19.8251C0.805304 19.9396 1.02565 20 1.25012 20H23.7501C24.2075 20 24.6282 19.7504 24.8474 19.3488C24.955 19.1519 25.0075 18.9295 24.9994 18.7053C24.9914 18.481 24.9231 18.263 24.8017 18.0742ZM12.5001 3.56172L15.8357 8.75H12.5001L10.0001 11.25L8.5134 9.76328L12.5001 3.56172Z" fill="#B3E376"/>
</svg>
