<svg width="26" height="25" viewBox="0 0 26 25" fill="none" xmlns="http://www.w3.org/2000/svg">
<path d="M25.0854 12.4865C25.0978 19.1584 19.6567 24.614 12.9849 24.6187C10.1033 24.6208 7.4564 23.6163 5.37637 21.9375C4.8355 21.501 4.79507 20.6904 5.28657 20.1989L5.83672 19.6488C6.25708 19.2284 6.92817 19.1824 7.3939 19.5519C8.92637 20.7679 10.8658 21.4938 12.9761 21.4938C17.9421 21.4938 21.9604 17.4747 21.9604 12.5094C21.9604 7.54333 17.9414 3.52502 12.9761 3.52502C10.5926 3.52502 8.42778 4.45125 6.82041 5.96311L9.29863 8.44133C9.79082 8.93352 9.44224 9.77502 8.74624 9.77502H1.64795C1.21646 9.77502 0.866699 9.42527 0.866699 8.99377V1.89548C0.866699 1.19949 1.7082 0.850903 2.20039 1.34304L4.61113 3.75378C6.78511 1.6762 9.73154 0.400024 12.9761 0.400024C19.6562 0.400024 25.0731 5.8092 25.0854 12.4865ZM16.2519 16.3334L16.7315 15.7167C17.1289 15.2058 17.0368 14.4695 16.5259 14.0722L14.5386 12.5264V7.43127C14.5386 6.78406 14.0139 6.2594 13.3667 6.2594H12.5854C11.9382 6.2594 11.4136 6.78406 11.4136 7.43127V14.0549L14.6074 16.5389C15.1183 16.9363 15.8545 16.8443 16.2519 16.3334Z" fill="#B3E376"/>
</svg>
